<?xml version="1.0" encoding="UTF-8" standalone="no"?><!DOCTYPE svg PUBLIC "-//W3C//DTD SVG 1.1//EN" "http://www.w3.org/Graphics/SVG/1.1/DTD/svg11.dtd"><svg width="100%" height="100%" viewBox="0 0 142 37" version="1.1" xmlns="http://www.w3.org/2000/svg" xmlns:xlink="http://www.w3.org/1999/xlink" xml:space="preserve" xmlns:serif="http://www.serif.com/" style="fill-rule:evenodd;clip-rule:evenodd;stroke-linejoin:round;stroke-miterlimit:2;"><g><path d="M25.985,2.716c-1.667,-1.901 -4.682,-2.716 -8.538,-2.716l-11.192,0c-0.785,0 -1.461,0.576 -1.584,1.352l-4.658,29.558c-0.008,0.049 -0.012,0.099 -0.012,0.149c0,0.527 0.434,0.96 0.96,0.96c0.001,0 0.001,0 0.001,0l6.91,0l1.735,-11.006l-0.054,0.344c0.121,-0.774 0.794,-1.351 1.577,-1.352l3.284,0c6.45,0 11.501,-2.62 12.976,-10.199c0.044,-0.224 0.082,-0.442 0.115,-0.655c0.438,-2.801 -0.003,-4.708 -1.519,-6.434" style="fill:#003087;fill-rule:nonzero;"/><path d="M110.574,16.781c-0.423,2.773 -2.541,2.773 -4.589,2.773l-1.165,0l0.817,-5.178c0.05,-0.313 0.319,-0.543 0.636,-0.543l0.535,0c1.395,0 2.712,0 3.391,0.794c0.405,0.475 0.528,1.18 0.375,2.154m-0.892,-7.237l-7.726,0c-0.527,0.001 -0.98,0.387 -1.062,0.907l-3.122,19.811c-0.006,0.033 -0.008,0.066 -0.008,0.1c0,0.353 0.29,0.644 0.643,0.644l3.965,0c0.37,0 0.684,-0.269 0.742,-0.633l0.887,-5.619c0.081,-0.521 0.532,-0.906 1.06,-0.906l2.444,0c5.091,0 8.028,-2.462 8.795,-7.344c0.345,-2.134 0.014,-3.812 -0.986,-4.986c-1.098,-1.291 -3.046,-1.975 -5.631,-1.975" style="fill:#009cde;fill-rule:nonzero;"/><path d="M55.465,16.781c-0.423,2.773 -2.541,2.773 -4.59,2.773l-1.165,0l0.817,-5.178c0.05,-0.313 0.319,-0.543 0.636,-0.543l0.535,0c1.395,0 2.712,0 3.391,0.794c0.406,0.475 0.529,1.18 0.376,2.154m-0.892,-7.237l-7.726,0c-0.528,0 -0.979,0.385 -1.061,0.907l-3.123,19.811c-0.006,0.033 -0.008,0.067 -0.008,0.101c0,0.353 0.29,0.643 0.643,0.643l3.69,0c0.528,0 0.977,-0.384 1.06,-0.906l0.844,-5.345c0.081,-0.522 0.532,-0.906 1.06,-0.906l2.444,0c5.091,0 8.028,-2.463 8.795,-7.345c0.345,-2.134 0.014,-3.812 -0.986,-4.986c-1.098,-1.291 -3.046,-1.975 -5.631,-1.975m17.937,14.351c-0.358,2.113 -2.035,3.533 -4.176,3.533c-1.073,0 -1.932,-0.346 -2.484,-0.999c-0.548,-0.648 -0.753,-1.571 -0.58,-2.598c0.333,-2.096 2.038,-3.561 4.146,-3.561c1.051,0 1.903,0.349 2.467,1.009c0.567,0.664 0.79,1.592 0.627,2.616m5.157,-7.203l-3.7,0c-0.317,0 -0.589,0.232 -0.638,0.545l-0.161,1.034l-0.259,-0.375c-0.801,-1.162 -2.587,-1.552 -4.371,-1.552c-4.087,0 -7.579,3.099 -8.258,7.442c-0.354,2.169 0.149,4.24 1.378,5.685c1.129,1.328 2.739,1.881 4.659,1.881c3.295,0 5.122,-2.116 5.122,-2.116l-0.165,1.028c-0.005,0.033 -0.008,0.067 -0.008,0.101c0,0.353 0.291,0.643 0.644,0.643c0,0 0,0 0.001,0l3.331,0c0.528,0 0.978,-0.383 1.061,-0.906l2,-12.665c0.005,-0.033 0.008,-0.066 0.008,-0.099c0,-0.354 -0.291,-0.645 -0.645,-0.645c0,0 0,0 0,0" style="fill:#003087;fill-rule:nonzero;"/><path d="M127.62,23.894c-0.358,2.113 -2.035,3.533 -4.176,3.533c-1.073,0 -1.932,-0.346 -2.484,-0.999c-0.548,-0.648 -0.753,-1.571 -0.58,-2.598c0.333,-2.096 2.037,-3.561 4.146,-3.561c1.051,0 1.903,0.349 2.467,1.009c0.567,0.664 0.79,1.592 0.627,2.616m5.157,-7.203l-3.7,0c-0.317,0 -0.589,0.232 -0.638,0.545l-0.161,1.034l-0.259,-0.375c-0.801,-1.162 -2.587,-1.552 -4.371,-1.552c-4.086,0 -7.578,3.099 -8.258,7.442c-0.354,2.169 0.15,4.24 1.379,5.685c1.129,1.328 2.739,1.881 4.659,1.881c3.296,0 5.123,-2.116 5.123,-2.116l-0.165,1.028c-0.005,0.034 -0.008,0.068 -0.008,0.103c0,0.352 0.289,0.641 0.641,0.641c0.001,0 0.001,0 0.002,0l3.33,0c0.528,0 0.978,-0.383 1.062,-0.906l2,-12.665c0.005,-0.033 0.008,-0.066 0.008,-0.099c0,-0.354 -0.291,-0.645 -0.645,-0.645c0,0 0,0 0,0" style="fill:#009cde;fill-rule:nonzero;"/><path d="M97.373,16.692l-3.72,0c-0.355,0 -0.687,0.176 -0.886,0.471l-5.131,7.555l-2.174,-7.26c-0.136,-0.453 -0.556,-0.766 -1.029,-0.767l-3.655,0c-0.354,0 -0.645,0.291 -0.645,0.645c0,0.07 0.012,0.141 0.035,0.208l4.094,12.02l-3.851,5.434c-0.077,0.109 -0.118,0.239 -0.118,0.372c0,0.353 0.291,0.644 0.644,0.644l3.716,0c0.35,0 0.68,-0.172 0.881,-0.461l12.367,-17.85c0.075,-0.108 0.115,-0.236 0.115,-0.367c0,-0.353 -0.29,-0.644 -0.643,-0.644" style="fill:#003087;fill-rule:nonzero;"/><path d="M137.137,10.089l-3.172,20.174c-0.005,0.033 -0.008,0.066 -0.008,0.1c0,0.353 0.291,0.644 0.645,0.644l3.188,0c0.528,0 0.979,-0.384 1.061,-0.906l3.127,-19.812c0.006,-0.034 0.008,-0.067 0.008,-0.101c0,-0.353 -0.29,-0.644 -0.643,-0.644c-0.001,0 -0.001,0 -0.001,0l-3.569,0c-0.316,0 -0.588,0.232 -0.636,0.544" style="fill:#009cde;fill-rule:nonzero;"/><path d="M25.985,2.716c-1.667,-1.901 -4.682,-2.716 -8.538,-2.716l-11.192,0c-0.785,0 -1.461,0.576 -1.584,1.352l-4.658,29.558c-0.008,0.049 -0.012,0.099 -0.012,0.149c0,0.527 0.434,0.96 0.96,0.96c0.001,0 0.001,0 0.001,0l6.91,0l1.735,-11.006l-0.054,0.344c0.121,-0.774 0.794,-1.351 1.577,-1.352l3.284,0c6.45,0 11.501,-2.62 12.976,-10.199c0.044,-0.224 0.082,-0.442 0.115,-0.655c0.438,-2.801 -0.003,-4.708 -1.519,-6.434" style="fill:#003087;fill-rule:nonzero;"/><path d="M11.471,9.188c0.108,-0.678 0.698,-1.182 1.384,-1.183l8.774,0c1.039,0 2.008,0.068 2.894,0.21c0.484,0.077 0.963,0.185 1.435,0.32c0.535,0.151 1.053,0.357 1.545,0.616c0.44,-2.802 -0.002,-4.708 -1.518,-6.435c-1.668,-1.9 -4.682,-2.715 -8.538,-2.715l-11.193,0c-0.785,0.001 -1.459,0.577 -1.582,1.352l-4.66,29.555c-0.008,0.049 -0.012,0.1 -0.012,0.15c0,0.527 0.433,0.96 0.96,0.96l6.911,0l1.735,-11.007l1.865,-11.823Z" style="fill:#003087;fill-rule:nonzero;"/><path d="M27.504,9.15c-0.035,0.219 -0.073,0.438 -0.115,0.655c-1.475,7.578 -6.526,10.199 -12.976,10.199l-3.285,0c-0.783,0.001 -1.456,0.578 -1.576,1.352l-1.681,10.661l-0.478,3.025c-0.007,0.043 -0.011,0.087 -0.011,0.131c0,0.462 0.38,0.841 0.841,0.841c0,0 0,0 0,0l5.825,0c0.689,0 1.275,-0.502 1.384,-1.182l0.057,-0.297l1.097,-6.958l0.07,-0.384c0.107,-0.678 0.698,-1.183 1.385,-1.183l0.871,0c5.643,0 10.061,-2.291 11.352,-8.921c0.538,-2.77 0.259,-5.084 -1.166,-6.709c-0.452,-0.503 -0.992,-0.92 -1.594,-1.23" style="fill:#009cde;fill-rule:nonzero;"/><path d="M25.959,8.535c-0.226,-0.066 -0.458,-0.126 -0.697,-0.179c-0.239,-0.053 -0.486,-0.1 -0.739,-0.139c-0.887,-0.145 -1.855,-0.213 -2.895,-0.213l-8.773,0c-0.687,0 -1.278,0.505 -1.384,1.184l-1.865,11.825l-0.054,0.343c0.12,-0.774 0.793,-1.351 1.576,-1.352l3.285,0c6.45,0 11.501,-2.62 12.976,-10.199c0.044,-0.224 0.081,-0.441 0.115,-0.655c-0.39,-0.204 -0.796,-0.375 -1.214,-0.512c-0.108,-0.036 -0.219,-0.07 -0.331,-0.104" style="fill:#012169;fill-rule:nonzero;"/></g></svg>